<svg width="117" height="16" viewBox="0 0 117 16" fill="none" xmlns="http://www.w3.org/2000/svg">
<path d="M5.62 15.18C4.71333 15.18 3.9 15.02 3.18 14.7C2.46 14.3667 1.88667 13.92 1.46 13.36C1.04667 12.8 0.82 12.18 0.78 11.5L3.6 11.5C3.65333 11.9267 3.86 12.28 4.22 12.56C4.59333 12.84 5.05333 12.98 5.6 12.98C6.13333 12.98 6.54667 12.8733 6.84 12.66C7.14667 12.4467 7.3 12.1733 7.3 11.84C7.3 11.48 7.11333 11.2133 6.74 11.04C6.38 10.8533 5.8 10.6533 5 10.44C4.17333 10.24 3.49333 10.0333 2.96 9.82C2.44 9.60667 1.98667 9.28 1.6 8.84C1.22667 8.4 1.04 7.80667 1.04 7.06C1.04 6.44667 1.21333 5.88667 1.56 5.38C1.92 4.87333 2.42667 4.47333 3.08 4.18C3.74667 3.88667 4.52667 3.74 5.42 3.74C6.74 3.74 7.79333 4.07333 8.58 4.74C9.36667 5.39333 9.8 6.28 9.88 7.4H7.2C7.16 6.96 6.97333 6.61333 6.64 6.36C6.32 6.09333 5.88667 5.96 5.34 5.96C4.83333 5.96 4.44 6.05333 4.16 6.24C3.89333 6.42667 3.76 6.68667 3.76 7.02C3.76 7.39333 3.94667 7.68 4.32 7.88C4.69333 8.06667 5.27333 8.26 6.06 8.46C6.86 8.66 7.52 8.86667 8.04 9.08C8.56 9.29333 9.00667 9.62667 9.38 10.08C9.76667 10.52 9.96667 11.1067 9.98 11.84C9.98 12.48 9.8 13.0533 9.44 13.56C9.09333 14.0667 8.58667 14.4667 7.92 14.76C7.26667 15.04 6.5 15.18 5.62 15.18ZM18.8384 15L15.0784 10.28V15L12.2784 15V0.2L15.0784 0.2V8.62L18.7984 3.92L22.4384 3.92L17.5584 9.48L22.4784 15L18.8384 15ZM23.2381 9.42C23.2381 8.3 23.4581 7.30667 23.8981 6.44C24.3515 5.57333 24.9581 4.90667 25.7181 4.44C26.4915 3.97333 27.3515 3.74 28.2981 3.74C29.1248 3.74 29.8448 3.90667 30.4581 4.24C31.0848 4.57333 31.5848 4.99333 31.9581 5.5V3.92L34.7781 3.92V15H31.9581V13.38C31.5981 13.9 31.0981 14.3333 30.4581 14.68C29.8315 15.0133 29.1048 15.18 28.2781 15.18C27.3448 15.18 26.4915 14.94 25.7181 14.46C24.9581 13.98 24.3515 13.3067 23.8981 12.44C23.4581 11.56 23.2381 10.5533 23.2381 9.42ZM31.9581 9.46C31.9581 8.78 31.8248 8.2 31.5581 7.72C31.2915 7.22667 30.9315 6.85333 30.4781 6.6C30.0248 6.33333 29.5381 6.2 29.0181 6.2C28.4981 6.2 28.0181 6.32667 27.5781 6.58C27.1381 6.83333 26.7781 7.20667 26.4981 7.7C26.2315 8.18 26.0981 8.75333 26.0981 9.42C26.0981 10.0867 26.2315 10.6733 26.4981 11.18C26.7781 11.6733 27.1381 12.0533 27.5781 12.32C28.0315 12.5867 28.5115 12.72 29.0181 12.72C29.5381 12.72 30.0248 12.5933 30.4781 12.34C30.9315 12.0733 31.2915 11.7 31.5581 11.22C31.8248 10.7267 31.9581 10.14 31.9581 9.46ZM40.7728 6.22V11.58C40.7728 11.9533 40.8595 12.2267 41.0328 12.4C41.2195 12.56 41.5261 12.64 41.9528 12.64L43.2528 12.64V15H41.4928C39.1328 15 37.9528 13.8533 37.9528 11.56V6.22H36.6328V3.92L37.9528 3.92V1.18L40.7728 1.18V3.92L43.2528 3.92V6.22L40.7728 6.22ZM55.5667 9.22C55.5667 9.62 55.5401 9.98 55.4867 10.3L47.3867 10.3C47.4534 11.1 47.7334 11.7267 48.2267 12.18C48.7201 12.6333 49.3267 12.86 50.0467 12.86C51.0867 12.86 51.8267 12.4133 52.2667 11.52H55.2867C54.9667 12.5867 54.3534 13.4667 53.4467 14.16C52.5401 14.84 51.4267 15.18 50.1067 15.18C49.0401 15.18 48.0801 14.9467 47.2267 14.48C46.3867 14 45.7267 13.3267 45.2467 12.46C44.7801 11.5933 44.5467 10.5933 44.5467 9.46C44.5467 8.31333 44.7801 7.30667 45.2467 6.44C45.7134 5.57333 46.3667 4.90667 47.2067 4.44C48.0467 3.97333 49.0134 3.74 50.1067 3.74C51.1601 3.74 52.1001 3.96667 52.9267 4.42C53.7667 4.87333 54.4134 5.52 54.8667 6.36C55.3334 7.18667 55.5667 8.14 55.5667 9.22ZM52.6667 8.42C52.6534 7.7 52.3934 7.12667 51.8867 6.7C51.3801 6.26 50.7601 6.04 50.0267 6.04C49.3334 6.04 48.7467 6.25333 48.2667 6.68C47.8001 7.09333 47.5134 7.67333 47.4067 8.42L52.6667 8.42ZM60.4105 5.54C60.7705 5.00667 61.2638 4.57333 61.8905 4.24C62.5305 3.90667 63.2571 3.74 64.0705 3.74C65.0171 3.74 65.8705 3.97333 66.6305 4.44C67.4038 4.90667 68.0105 5.57333 68.4505 6.44C68.9038 7.29333 69.1305 8.28667 69.1305 9.42C69.1305 10.5533 68.9038 11.56 68.4505 12.44C68.0105 13.3067 67.4038 13.98 66.6305 14.46C65.8705 14.94 65.0171 15.18 64.0705 15.18C63.2438 15.18 62.5171 15.02 61.8905 14.7C61.2771 14.3667 60.7838 13.94 60.4105 13.42V15L57.6105 15V0.2L60.4105 0.2V5.54ZM66.2705 9.42C66.2705 8.75333 66.1305 8.18 65.8505 7.7C65.5838 7.20667 65.2238 6.83333 64.7705 6.58C64.3305 6.32667 63.8505 6.2 63.3305 6.2C62.8238 6.2 62.3438 6.33333 61.8905 6.6C61.4505 6.85333 61.0905 7.22667 60.8105 7.72C60.5438 8.21333 60.4105 8.79333 60.4105 9.46C60.4105 10.1267 60.5438 10.7067 60.8105 11.2C61.0905 11.6933 61.4505 12.0733 61.8905 12.34C62.3438 12.5933 62.8238 12.72 63.3305 12.72C63.8505 12.72 64.3305 12.5867 64.7705 12.32C65.2238 12.0533 65.5838 11.6733 65.8505 11.18C66.1305 10.6867 66.2705 10.1 66.2705 9.42ZM76.0852 15.18C75.0185 15.18 74.0585 14.9467 73.2052 14.48C72.3518 14 71.6785 13.3267 71.1852 12.46C70.7052 11.5933 70.4652 10.5933 70.4652 9.46C70.4652 8.32667 70.7118 7.32667 71.2052 6.46C71.7118 5.59333 72.3985 4.92667 73.2652 4.46C74.1318 3.98 75.0985 3.74 76.1652 3.74C77.2318 3.74 78.1985 3.98 79.0652 4.46C79.9318 4.92667 80.6118 5.59333 81.1052 6.46C81.6118 7.32667 81.8652 8.32667 81.8652 9.46C81.8652 10.5933 81.6052 11.5933 81.0852 12.46C80.5785 13.3267 79.8852 14 79.0052 14.48C78.1385 14.9467 77.1652 15.18 76.0852 15.18ZM76.0852 12.74C76.5918 12.74 77.0652 12.62 77.5052 12.38C77.9585 12.1267 78.3185 11.7533 78.5852 11.26C78.8518 10.7667 78.9852 10.1667 78.9852 9.46C78.9852 8.40667 78.7052 7.6 78.1452 7.04C77.5985 6.46667 76.9252 6.18 76.1252 6.18C75.3252 6.18 74.6518 6.46667 74.1052 7.04C73.5718 7.6 73.3052 8.40667 73.3052 9.46C73.3052 10.5133 73.5652 11.3267 74.0852 11.9C74.6185 12.46 75.2852 12.74 76.0852 12.74ZM83.1991 9.42C83.1991 8.3 83.4191 7.30667 83.8591 6.44C84.3124 5.57333 84.9191 4.90667 85.6791 4.44C86.4524 3.97333 87.3124 3.74 88.2591 3.74C89.0857 3.74 89.8057 3.90667 90.4191 4.24C91.0457 4.57333 91.5457 4.99333 91.9191 5.5V3.92L94.7391 3.92V15L91.9191 15V13.38C91.5591 13.9 91.0591 14.3333 90.4191 14.68C89.7924 15.0133 89.0657 15.18 88.2391 15.18C87.3057 15.18 86.4524 14.94 85.6791 14.46C84.9191 13.98 84.3124 13.3067 83.8591 12.44C83.4191 11.56 83.1991 10.5533 83.1991 9.42ZM91.9191 9.46C91.9191 8.78 91.7857 8.2 91.5191 7.72C91.2524 7.22667 90.8924 6.85333 90.4391 6.6C89.9857 6.33333 89.4991 6.2 88.9791 6.2C88.4591 6.2 87.9791 6.32667 87.5391 6.58C87.0991 6.83333 86.7391 7.20667 86.4591 7.7C86.1924 8.18 86.0591 8.75333 86.0591 9.42C86.0591 10.0867 86.1924 10.6733 86.4591 11.18C86.7391 11.6733 87.0991 12.0533 87.5391 12.32C87.9924 12.5867 88.4724 12.72 88.9791 12.72C89.4991 12.72 89.9857 12.5933 90.4391 12.34C90.8924 12.0733 91.2524 11.7 91.5191 11.22C91.7857 10.7267 91.9191 10.14 91.9191 9.46ZM100.274 5.64C100.634 5.05333 101.1 4.59333 101.674 4.26C102.26 3.92667 102.927 3.76 103.674 3.76V6.7H102.934C102.054 6.7 101.387 6.90667 100.934 7.32C100.494 7.73333 100.274 8.45333 100.274 9.48V15H97.4738V3.92L100.274 3.92V5.64ZM104.84 9.42C104.84 8.3 105.06 7.30667 105.5 6.44C105.953 5.57333 106.566 4.90667 107.34 4.44C108.113 3.97333 108.973 3.74 109.92 3.74C110.64 3.74 111.326 3.9 111.98 4.22C112.633 4.52667 113.153 4.94 113.54 5.46V0.2L116.38 0.2V15H113.54V13.36C113.193 13.9067 112.706 14.3467 112.08 14.68C111.453 15.0133 110.726 15.18 109.9 15.18C108.966 15.18 108.113 14.94 107.34 14.46C106.566 13.98 105.953 13.3067 105.5 12.44C105.06 11.56 104.84 10.5533 104.84 9.42ZM113.56 9.46C113.56 8.78 113.426 8.2 113.16 7.72C112.893 7.22667 112.533 6.85333 112.08 6.6C111.626 6.33333 111.14 6.2 110.62 6.2C110.1 6.2 109.62 6.32667 109.18 6.58C108.74 6.83333 108.38 7.20667 108.1 7.7C107.833 8.18 107.7 8.75333 107.7 9.42C107.7 10.0867 107.833 10.6733 108.1 11.18C108.38 11.6733 108.74 12.0533 109.18 12.32C109.633 12.5867 110.113 12.72 110.62 12.72C111.14 12.72 111.626 12.5933 112.08 12.34C112.533 12.0733 112.893 11.7 113.16 11.22C113.426 10.7267 113.56 10.14 113.56 9.46Z" fill="white"/>
</svg>
